<svg version="1.1" viewBox="0.0 0.0 100.0 100.0" fill="none" stroke="none" stroke-linecap="square" stroke-miterlimit="10" xmlns:xlink="http://www.w3.org/1999/xlink" xmlns="http://www.w3.org/2000/svg"><clipPath id="p.0"><path d="m0 0l100.0 0l0 100.0l-100.0 0l0 -100.0z" clip-rule="nonzero"/></clipPath><g clip-path="url(#p.0)"><path fill="#000000" fill-opacity="0.0" d="m0 0l100.0 0l0 100.0l-100.0 0z" fill-rule="evenodd"/><path fill="#000000" fill-opacity="0.0" d="m1.8897638 50.07874l0 0c0 -26.614037 21.57494 -48.188976 48.188976 -48.188976l0 0c12.780514 0 25.037563 5.0770383 34.074757 14.114224c9.037186 9.037186 14.11422 21.29424 14.11422 34.074753l0 0c0 26.61404 -21.574936 48.188976 -48.188976 48.188976l0 0c-26.614037 0 -48.188976 -21.574936 -48.188976 -48.188976z" fill-rule="evenodd"/><path stroke="#ff0000" stroke-width="4.0" stroke-linejoin="round" stroke-linecap="butt" d="m1.8897638 50.07874l0 0c0 -26.614037 21.57494 -48.188976 48.188976 -48.188976l0 0c12.780514 0 25.037563 5.0770383 34.074757 14.114224c9.037186 9.037186 14.11422 21.29424 14.11422 34.074753l0 0c0 26.61404 -21.574936 48.188976 -48.188976 48.188976l0 0c-26.614037 0 -48.188976 -21.574936 -48.188976 -48.188976z" fill-rule="evenodd"/><path fill="#000000" fill-opacity="0.0" d="m20.652258 29.422419l8.770161 -8.770161l20.65632 20.656324l20.656322 -20.656324l8.770157 8.770161l-20.656319 20.65632l20.656319 20.656322l-8.770157 8.770157l-20.656322 -20.656319l-20.65632 20.656319l-8.770161 -8.770157l20.656324 -20.656322z" fill-rule="evenodd"/><path stroke="#ff0000" stroke-width="4.0" stroke-linejoin="round" stroke-linecap="butt" d="m20.652258 29.422419l8.770161 -8.770161l20.65632 20.656324l20.656322 -20.656324l8.770157 8.770161l-20.656319 20.65632l20.656319 20.656322l-8.770157 8.770157l-20.656322 -20.656319l-20.65632 20.656319l-8.770161 -8.770157l20.656324 -20.656322z" fill-rule="evenodd"/></g></svg>