<svg version="1.1" viewBox="0.0 0.0 100.0 100.0" fill="none" stroke="none" stroke-linecap="square" stroke-miterlimit="10" xmlns:xlink="http://www.w3.org/1999/xlink" xmlns="http://www.w3.org/2000/svg"><clipPath id="p.0"><path d="m0 0l100.0 0l0 100.0l-100.0 0l0 -100.0z" clip-rule="nonzero"/></clipPath><g clip-path="url(#p.0)"><path fill="#000000" fill-opacity="0.0" d="m0 0l100.0 0l0 100.0l-100.0 0z" fill-rule="evenodd"/><path fill="#000000" fill-opacity="0.0" d="m1.8897638 50.07874l0 0c0 -26.614037 21.57494 -48.188976 48.188976 -48.188976l0 0c12.780514 0 25.037563 5.0770383 34.074757 14.114224c9.037186 9.037186 14.11422 21.29424 14.11422 34.074753l0 0c0 26.61404 -21.574936 48.188976 -48.188976 48.188976l0 0c-26.614037 0 -48.188976 -21.574936 -48.188976 -48.188976z" fill-rule="evenodd"/><path stroke="#5beb5b" stroke-width="4.0" stroke-linejoin="round" stroke-linecap="butt" d="m1.8897638 50.07874l0 0c0 -26.614037 21.57494 -48.188976 48.188976 -48.188976l0 0c12.780514 0 25.037563 5.0770383 34.074757 14.114224c9.037186 9.037186 14.11422 21.29424 14.11422 34.074753l0 0c0 26.61404 -21.574936 48.188976 -48.188976 48.188976l0 0c-26.614037 0 -48.188976 -21.574936 -48.188976 -48.188976z" fill-rule="evenodd"/><path fill="#000000" fill-opacity="0.0" d="m15.116797 54.036938l7.92126 -10.455013l19.939634 21.606583l35.23622 -42.516605l6.826767 9.058554l-38.784775 51.578514z" fill-rule="evenodd"/><path stroke="#5beb5b" stroke-width="4.0" stroke-linejoin="round" stroke-linecap="butt" d="m15.116797 54.036938l7.92126 -10.455013l19.939634 21.606583l35.23622 -42.516605l6.826767 9.058554l-38.784775 51.578514z" fill-rule="evenodd"/></g></svg>