<svg version="1.1" viewBox="0.0 0.0 100.0 100.0" fill="none" stroke="none" stroke-linecap="square" stroke-miterlimit="10" xmlns:xlink="http://www.w3.org/1999/xlink" xmlns="http://www.w3.org/2000/svg"><clipPath id="p.0"><path d="m0 0l100.0 0l0 100.0l-100.0 0l0 -100.0z" clip-rule="nonzero"/></clipPath><g clip-path="url(#p.0)"><path fill="#000000" fill-opacity="0.0" d="m0 0l100.0 0l0 100.0l-100.0 0z" fill-rule="evenodd"/><path fill="#000000" fill-opacity="0.0" d="m1.8897638 50.07874l0 0c0 -26.614037 21.57494 -48.188976 48.188976 -48.188976l0 0c12.780514 0 25.037563 5.0770383 34.074757 14.114224c9.037186 9.037186 14.11422 21.29424 14.11422 34.074753l0 0c0 26.61404 -21.574936 48.188976 -48.188976 48.188976l0 0c-26.614037 0 -48.188976 -21.574936 -48.188976 -48.188976z" fill-rule="evenodd"/><path stroke="#ff9900" stroke-width="4.0" stroke-linejoin="round" stroke-linecap="butt" d="m1.8897638 50.07874l0 0c0 -26.614037 21.57494 -48.188976 48.188976 -48.188976l0 0c12.780514 0 25.037563 5.0770383 34.074757 14.114224c9.037186 9.037186 14.11422 21.29424 14.11422 34.074753l0 0c0 26.61404 -21.574936 48.188976 -48.188976 48.188976l0 0c-26.614037 0 -48.188976 -21.574936 -48.188976 -48.188976z" fill-rule="evenodd"/><path fill="#000000" fill-opacity="0.0" d="m14.708661 72.480316l35.37008 -61.826775l35.370083 61.826775z" fill-rule="evenodd"/><path stroke="#ff9900" stroke-width="4.0" stroke-linejoin="round" stroke-linecap="butt" d="m14.708661 72.480316l35.37008 -61.826775l35.370083 61.826775z" fill-rule="evenodd"/><path fill="#000000" fill-opacity="0.0" d="m34.90814 13.973753l51.905514 0l0 69.480316l-51.905514 0z" fill-rule="evenodd"/><path fill="#ff9900" d="m48.56439 55.31l-1.109375 -15.6875l0 -6.546875l4.5 0l0 6.546875l-1.046875 15.6875l-2.34375 0zm-0.9375 7.34375l0 -4.140625l4.171875 0l0 4.140625l-4.171875 0z" fill-rule="nonzero"/></g></svg>